<?xml version="1.0" encoding="utf-8"?><svg xmlns="http://www.w3.org/2000/svg" xmlns:xlink="http://www.w3.org/1999/xlink" width="1732" height="124" preserveAspectRatio="xMidYMid" viewBox="0 0 1732 124" style="z-index:1;margin-right:-2px;display:block;background-repeat-y:initial;background-repeat-x:initial;animation-play-state:paused" ><g transform="translate(866,62) scale(1,-1) translate(-866,-62)" style="transform:matrix(1, 0, 0, -1, 0, 124);animation-play-state:paused" ><linearGradient id="lg-0.6674364778891881" x1="0" x2="1" y1="0" y2="0" style="animation-play-state:paused" ><stop stop-color="#00ccff" offset="0" style="animation-play-state:paused" ></stop>

  
<stop stop-color="#00ccff" offset="1" style="animation-play-state:paused" ></stop></linearGradient>
<path d="M 0 0 L 0 113.849 Q 173.2 137.771 346.4 106.691 T 692.8 93.707 T 1039.2 69.6393 T 1385.6 59.6904 T 1732 46.1084 L 1732 0 Z" fill="url(#lg-0.6674364778891881)" opacity="0.26" style="opacity:0.26;animation-play-state:paused" ></path>
<path d="M 0 0 L 0 118.391 Q 173.2 128.311 346.4 103.725 T 692.8 89.7844 T 1039.2 67.5243 T 1385.6 51.222 T 1732 46.9875 L 1732 0 Z" fill="url(#lg-0.6674364778891881)" opacity="0.26" style="opacity:0.26;animation-play-state:paused" ></path>
<path d="M 0 0 L 0 111.315 Q 173.2 124.978 346.4 94.1441 T 692.8 78.3767 T 1039.2 67.7096 T 1385.6 62.5032 T 1732 44.7256 L 1732 0 Z" fill="url(#lg-0.6674364778891881)" opacity="0.26" style="opacity:0.26;animation-play-state:paused" ></path>
<path d="M 0 0 L 0 111.425 Q 173.2 122.559 346.4 103.717 T 692.8 88.8523 T 1039.2 77.9677 T 1385.6 64.2002 T 1732 47.8062 L 1732 0 Z" fill="url(#lg-0.6674364778891881)" opacity="0.26" style="opacity:0.26;animation-play-state:paused" ></path></g></svg>