<?xml version="1.0" encoding="utf-8"?><svg xmlns="http://www.w3.org/2000/svg" xmlns:xlink="http://www.w3.org/1999/xlink" width="1732" height="124" preserveAspectRatio="xMidYMid" viewBox="0 0 1732 124" style="z-index:1;margin-right:-2px;display:block;background-repeat-y:initial;background-repeat-x:initial;animation-play-state:paused" ><g transform="translate(866,62) scale(1,-1) translate(-866,-62)" style="transform:matrix(1, 0, 0, -1, 0, 124);animation-play-state:paused" ><linearGradient id="lg-0.23864401921996614" x1="0" x2="1" y1="0" y2="0" style="animation-play-state:paused" ><stop stop-color="#00ccff" offset="0" style="animation-play-state:paused" ></stop>

  
<stop stop-color="#00ccff" offset="1" style="animation-play-state:paused" ></stop></linearGradient>
<path d="M 0 0 L 0 108.517 Q 173.2 133.449 346.4 104.913 T 692.8 96.0357 T 1039.2 75.4688 T 1385.6 55.2138 T 1732 45.5163 L 1732 0 Z" fill="url(#lg-0.23864401921996614)" opacity="0.59" style="opacity:0.59;animation-play-state:paused" ></path>
<path d="M 0 0 L 0 116.994 Q 173.2 142.894 346.4 105.39 T 692.8 74.2336 T 1039.2 60.0602 T 1385.6 55.3891 T 1732 37.2721 L 1732 0 Z" fill="url(#lg-0.23864401921996614)" opacity="0.59" style="opacity:0.59;animation-play-state:paused" ></path>
<path d="M 0 0 L 0 110.632 Q 173.2 126.188 346.4 94.7936 T 692.8 83.5719 T 1039.2 72.6377 T 1385.6 57.2107 T 1732 39.2961 L 1732 0 Z" fill="url(#lg-0.23864401921996614)" opacity="0.59" style="opacity:0.59;animation-play-state:paused" ></path>
<path d="M 0 0 L 0 107.056 Q 173.2 124.003 346.4 105.649 T 692.8 93.3926 T 1039.2 78.5871 T 1385.6 64.3226 T 1732 43.0064 L 1732 0 Z" fill="url(#lg-0.23864401921996614)" opacity="0.59" style="opacity:0.59;animation-play-state:paused" ></path></g></svg>